<svg width="128" height="128" viewBox="0 0 128 128" fill="none" xmlns="http://www.w3.org/2000/svg">
<g clip-path="url(#clip0_82_2)">
<path d="M57.679 75.7977C58.0626 73.2153 58.0005 70.6011 58.0005 68C59.7484 71.4958 62.0317 75.2862 63.2458 79.0634C64.3135 82.3852 64.3311 85.8341 64.3311 89.2828C64.3311 91.8297 64.2893 94.2523 63.5674 96.7187C62.6269 99.9321 61.2081 102.92 59.5178 105.803C57.4981 109.247 55.3845 112.746 52.1322 115.168C49.3429 117.245 46.092 118.823 42.787 119.881C39.7063 120.866 36.3677 121.674 33.1203 121.719C32.8707 121.723 30.1522 121.89 30.0053 121.498C29.9047 121.23 31.2748 119.979 31.3518 119.891C32.5218 118.552 33.6165 117.153 34.708 115.751C38.844 110.437 43.1707 105.226 47.1079 99.7634C52.2047 92.6922 56.3858 84.5026 57.679 75.7977Z" fill="#5DADE2" stroke="#5DADE2" stroke-width="4" stroke-linecap="round"/>
<path d="M82.7209 60.5054C80.6092 58.9703 78.263 57.8157 75.9572 56.612C79.865 56.6802 84.2817 56.41 88.1921 57.0816C91.6308 57.6723 94.6964 59.2527 97.7536 60.8486C100.011 62.0271 102.14 63.1853 103.992 64.9665C106.406 67.2873 108.398 69.9277 110.171 72.76C112.29 76.1443 114.413 79.6371 115.055 83.641C115.606 87.0749 115.501 90.687 114.909 94.1062C114.357 97.2935 113.528 100.627 112.066 103.527C111.953 103.75 110.844 106.237 110.428 106.186C110.144 106.151 109.669 104.357 109.626 104.248C108.981 102.592 108.247 100.974 107.509 99.3571C104.712 93.2315 102.095 86.9846 99.0746 80.9667C95.1645 73.1762 89.8394 65.6799 82.7209 60.5054Z" fill="#5DADE2" stroke="#5DADE2" stroke-width="4" stroke-linecap="round"/>
<path d="M73.5423 40.6698C71.9867 42.7665 70.3416 44.4413 69.1156 46.7353C69.2218 42.8283 69.4623 39.0692 70.1719 35.1656C70.796 31.7327 72.4062 28.6827 74.0318 25.6412C75.2323 23.395 76.4111 21.2781 78.2103 19.4431C80.5544 17.0524 83.2141 15.0858 86.0636 13.3405C89.4683 11.2549 92.9817 9.16517 96.9917 8.56216C100.431 8.04501 104.042 8.1856 107.455 8.8107C110.637 9.39337 113.962 10.255 116.847 11.7454C117.069 11.86 119.545 12.9937 119.49 13.4087C119.453 13.6926 117.654 14.1506 117.545 14.1919C115.882 14.8207 114.257 15.5389 112.633 16.2612C106.481 18.9981 100.209 21.5545 94.1618 24.5162C86.3336 28.3502 78.7859 33.6021 73.5423 40.6698Z" fill="#5DADE2" stroke="#5DADE2" stroke-width="4" stroke-linecap="round"/>
<path d="M45.2274 52.8002C47.2814 54.4118 48.9111 56.1015 51.1712 57.389C47.2685 57.1773 43.5173 56.8355 39.6342 56.0207C36.2195 55.3042 33.2141 53.6123 30.2175 51.9052C28.0045 50.6445 25.9202 49.409 24.1345 47.5609C21.8079 45.1531 19.9139 42.4413 18.246 39.5458C16.2531 36.086 14.259 32.5175 13.7645 28.4926C13.3404 25.0409 13.5784 21.4351 14.2954 18.0399C14.9637 14.8751 15.9148 11.5746 17.4825 8.7303C17.6031 8.51163 18.8033 6.06677 19.2165 6.13307C19.4994 6.17844 19.9086 7.98839 19.947 8.09888C20.5307 9.77792 21.2048 11.4218 21.8829 13.0644C24.4528 19.2885 26.8389 25.6273 29.6363 31.7522C33.2576 39.681 38.3039 47.3678 45.2274 52.8002Z" fill="#5DADE2" stroke="#5DADE2" stroke-width="4" stroke-linecap="round"/>
</g>
<defs>
<clipPath id="clip0_82_2">
<rect width="128" height="128" fill="white"/>
</clipPath>
</defs>
</svg>
